# xmcd
#
# Track frame offsets:
#	150
#	18620
#	33074
#	53333
#	68092
#	87023
#	98145
#	109897
#	125148
#	136924
#	153237
#	170262
#	187764
#	201931
#	222344
#	237864
#	252206
#	269989
#	287324
#	304249
#	317124
#
# Disc length: 4395 seconds
#
# Revision: 1
# Processed by: cddbd v1.5.1PL2 Copyright (c) Steve Scherf et al.
# Submitted via: audiograbber 1.83.01
#
DISCID=22112915
DTITLE=Various Artist - CDX 1019 B
DYEAR=2005
DGENRE=Country
TTITLE0=Montgomery Gentry - Merry Christmas from the family
TTITLE1=Amber Dotosn - Blue Christmas
TTITLE2=Clint Black - Christmas with you
TTITLE3=Lisa Payne - Blues for Christmas
TTITLE4=Kacey Jones - I'm down to my Christmas underwear
TTITLE5=Narvel Felts - The little drummer boy
TTITLE6=The Geezinslaws - Lighten up it's Christmas
TTITLE7=Michael Chain - Santa Claus is coming to Iraq
TTITLE8=Kelsey - Santa Claus is coming to town
TTITLE9=Doug Wayne - Almost time for Christmas
TTITLE10=Steve Azar - Catfish Christmas
TTITLE11=Joseph James - Christmas in my hometown
TTITLE12=The Overall Brothers - Christmas time in Texas
TTITLE13=Thea Tippin - He said that he was Jesus
TTITLE14=Grandy Hackett - It's a mountain Christmas
TTITLE15=Todd Fritsch - Harry had a little boy
TTITLE16=Native Mind - Rockin' Santa Claus
TTITLE17=Grandy Hackett - Santa Claus is comin'
TTITLE18=The Harptones - Santa's misbehavin'
TTITLE19=4 Sisters and a Cousin - White Christmas
TTITLE20=Ron Allen and Stve Aslund - Wrap me in your arms for Christmas
EXTD=
EXTT0=
EXTT1=
EXTT2=
EXTT3=
EXTT4=
EXTT5=
EXTT6=
EXTT7=
EXTT8=
EXTT9=
EXTT10=
EXTT11=
EXTT12=
EXTT13=
EXTT14=
EXTT15=
EXTT16=
EXTT17=
EXTT18=
EXTT19=
EXTT20=
PLAYORDER=
